<?xml version="1.0" standalone="no"?>
<!DOCTYPE svg PUBLIC "-//W3C//DTD SVG 20010904//EN"
 "http://www.w3.org/TR/2001/REC-SVG-20010904/DTD/svg10.dtd">
<svg version="1.0" xmlns="http://www.w3.org/2000/svg"
 width="260.000000pt" height="260.000000pt" viewBox="0 0 260.000000 260.000000"
 preserveAspectRatio="xMidYMid meet">
<metadata>
Created by potrace 1.11, written by Peter Selinger 2001-2013
</metadata>
<g transform="translate(0.000000,260.000000) scale(0.100000,-0.100000)"
fill="#000000" stroke="none">
<path d="M132 2153 c-33 -6 -45 -37 -37 -96 4 -29 11 -62 16 -73 4 -12 38
-138 74 -280 37 -143 73 -284 81 -314 8 -30 35 -134 60 -230 25 -96 63 -245
85 -330 23 -85 42 -162 44 -170 32 -135 62 -229 78 -248 32 -34 79 -42 247
-39 213 3 219 7 254 157 26 110 96 406 138 580 21 91 41 172 43 180 5 21 56
239 65 275 l7 30 11 -40 c6 -22 72 -283 146 -579 75 -297 142 -549 151 -562
20 -30 90 -44 230 -44 131 0 206 13 230 40 14 16 39 87 60 170 2 8 54 206 115
440 62 234 129 490 150 570 21 80 56 215 78 300 57 218 58 243 8 260 -45 15
-223 11 -263 -5 -17 -7 -34 -21 -36 -32 -5 -16 -54 -227 -107 -458 -11 -49
-23 -98 -25 -109 -2 -10 -18 -80 -35 -155 -17 -75 -58 -252 -91 -393 -32 -141
-59 -260 -60 -265 0 -7 -100 381 -113 442 -3 11 -32 130 -66 265 -34 135 -63
254 -66 265 -2 11 -26 109 -53 218 -35 139 -55 203 -68 212 -26 19 -106 28
-221 23 -148 -6 -140 5 -202 -250 -58 -240 -84 -347 -135 -563 -19 -82 -38
-161 -42 -175 -3 -14 -8 -34 -10 -44 -2 -11 -11 -47 -19 -80 -9 -34 -17 -68
-19 -76 -2 -8 -14 -60 -26 -115 -12 -55 -25 -103 -29 -108 -3 -4 -26 77 -49
180 -24 104 -54 238 -68 298 -26 112 -48 211 -148 650 -42 185 -61 254 -75
266 -16 14 -43 17 -152 16 -73 0 -143 -2 -156 -4z"/>
</g>
</svg>
